<svg width="25" height="25" viewBox="0 0 25 25" fill="none" xmlns="http://www.w3.org/2000/svg">
<path d="M18.5184 21.0901V2.6126C18.5174 2.27087 18.3812 1.94342 18.1395 1.70178C17.8979 1.46014 17.5704 1.32394 17.2287 1.32295H2.61265C2.27092 1.32394 1.94347 1.46014 1.70183 1.70178C1.46019 1.94342 1.32399 2.27087 1.323 2.6126V21.5275C1.3247 22.097 1.5517 22.6428 1.95443 23.0455C2.35716 23.4482 2.90288 23.6752 3.47242 23.6769H21.0977" stroke="black" stroke-width="2.60409" stroke-linejoin="round"/>
<path d="M21.0977 23.677C20.4136 23.677 19.7575 23.4052 19.2738 22.9215C18.7901 22.4378 18.5184 21.7818 18.5184 21.0977V5.62186H22.3873C22.7294 5.62186 23.0574 5.75773 23.2992 5.99959C23.5411 6.24145 23.677 6.56947 23.677 6.91151V21.0977C23.677 21.7818 23.4052 22.4378 22.9215 22.9215C22.4378 23.4052 21.7817 23.677 21.0977 23.677Z" stroke="black" stroke-width="2.60409" stroke-linejoin="round"/>
<path d="M11.6402 5.62186H15.0793" stroke="black" stroke-width="2.60409" stroke-linecap="round" stroke-linejoin="round"/>
<path d="M11.6402 9.06084H15.0793" stroke="black" stroke-width="2.60409" stroke-linecap="round" stroke-linejoin="round"/>
<path d="M4.76207 12.4999H15.0793" stroke="black" stroke-width="2.60409" stroke-linecap="round" stroke-linejoin="round"/>
<path d="M4.76207 15.939H15.0793" stroke="black" stroke-width="2.60409" stroke-linecap="round" stroke-linejoin="round"/>
<path d="M4.76207 19.378H15.0793" stroke="black" stroke-width="2.60409" stroke-linecap="round" stroke-linejoin="round"/>
<path d="M8.20114 9.92066H4.76207C4.53404 9.92066 4.31536 9.83008 4.15412 9.66884C3.99288 9.5076 3.9023 9.28892 3.9023 9.06089V5.62182C3.9023 5.3938 3.99288 5.17511 4.15412 5.01387C4.31536 4.85264 4.53404 4.76205 4.76207 4.76205H8.20114C8.42917 4.76205 8.64785 4.85264 8.80909 5.01387C8.97033 5.17511 9.06091 5.3938 9.06091 5.62182V9.06089C9.06091 9.28892 8.97033 9.5076 8.80909 9.66884C8.64785 9.83008 8.42917 9.92066 8.20114 9.92066Z" fill="black"/>
</svg>
