<svg width="33" height="25" viewBox="0 0 33 25" fill="none" xmlns="http://www.w3.org/2000/svg">
<path d="M16.492 24.4874C18.7078 24.4897 20.8117 25.4922 23.0016 24.6865C24.7416 24.0456 26.108 22.4895 26.4143 20.3915C26.6888 18.5113 25.8913 16.7679 24.5425 15.2718C20.3016 10.5692 12.6823 10.5692 8.44143 15.2718C7.09261 16.7679 6.29628 18.5102 6.56957 20.3915C6.87468 22.4895 8.24235 24.0468 9.98227 24.6865C12.1722 25.4922 14.2761 24.4909 16.492 24.4874Z" fill="white"/>
<path d="M12.0643 8.16407C13.9311 7.80095 15.0911 5.69098 14.6555 3.45132C14.2198 1.21166 12.3534 -0.309581 10.4866 0.0535398C8.61994 0.416661 7.45986 2.52663 7.89553 4.7663C8.3312 7.00596 10.1976 8.52719 12.0643 8.16407Z" fill="white"/>
<path d="M3.70399 13.6718C5.32674 13.3561 6.33508 11.5212 5.95618 9.5734C5.57728 7.62559 3.95462 6.30248 2.33187 6.61815C0.709126 6.93381 -0.299214 8.76872 0.0796838 10.7165C0.458582 12.6643 2.08124 13.9875 3.70399 13.6718Z" fill="white"/>
<path d="M25.0883 4.76623C25.5238 2.52655 24.3636 0.416635 22.4969 0.0536115C20.6302 -0.309412 18.7638 1.21192 18.3283 3.45161C17.8927 5.69129 19.0529 7.8012 20.9196 8.16423C22.7864 8.52725 24.6527 7.00592 25.0883 4.76623Z" fill="white"/>
<path d="M32.9043 10.7167C33.2831 8.76882 32.2747 6.93396 30.6519 6.61838C29.0292 6.3028 27.4066 7.626 27.0278 9.57383C26.649 11.5217 27.6574 13.3565 29.2802 13.6721C30.9029 13.9877 32.5255 12.6645 32.9043 10.7167Z" fill="white"/>
</svg>
