<svg width="51" height="61" viewBox="0 0 51 61" fill="none" xmlns="http://www.w3.org/2000/svg">
<path d="M22.3748 0.471869L5.76733 6.69213C2.59681 7.89994 0 11.6442 0 15.0563V39.5146C0 41.9604 1.60036 45.1913 3.56306 46.6407L20.1705 59.051C23.0995 61.2553 27.9006 61.2553 30.8295 59.051L47.437 46.6407C49.3997 45.1611 51.0001 41.9604 51.0001 39.5146V15.0563C51.0001 11.6744 48.4033 7.89994 45.2328 6.72232L28.6253 0.502065C26.9343 -0.162235 24.096 -0.162235 22.3748 0.471869Z" fill="white"/>
<path d="M21.469 37.2197C20.8953 37.2197 20.3216 37.0083 19.8687 36.5554L15.0072 31.6939C14.1315 30.8183 14.1315 29.3689 15.0072 28.4932C15.8829 27.6175 17.3322 27.6175 18.2079 28.4932L21.469 31.7543L32.8527 20.3706C33.7284 19.495 35.1777 19.495 36.0534 20.3706C36.9291 21.2463 36.9291 22.6957 36.0534 23.5714L23.0694 36.5554C22.6164 37.0083 22.0427 37.2197 21.469 37.2197Z" fill="#292D32"/>
</svg>
