<svg width="20" height="21" viewBox="0 0 20 21" fill="none" xmlns="http://www.w3.org/2000/svg">
<path d="M6.96654 19.7121V16.5014C6.96654 15.6819 7.63581 15.0175 8.46139 15.0175H11.4793C11.8757 15.0175 12.256 15.1738 12.5363 15.4521C12.8166 15.7304 12.9741 16.1079 12.9741 16.5014V19.7121C12.9716 20.0528 13.1062 20.3804 13.348 20.6223C13.5899 20.8641 13.9189 21.0001 14.2621 21.0001H16.3211C17.2827 21.0025 18.2058 20.6251 18.8866 19.9509C19.5674 19.2768 19.9501 18.3614 19.9501 17.4068V8.26023C19.95 7.48911 19.6057 6.75766 19.0099 6.26292L12.0058 0.709665C10.7874 -0.264011 9.0417 -0.232574 7.85969 0.78433L1.01537 6.26292C0.391379 6.74307 0.01843 7.47669 0 8.26023V17.3974C0 19.3871 1.62476 21.0001 3.62899 21.0001H5.64092C6.35381 21.0001 6.93317 20.4291 6.93834 19.7214L6.96654 19.7121Z" fill="black"/>
</svg>
