<svg width="24" height="24" viewBox="0 0 24 24" fill="none" xmlns="http://www.w3.org/2000/svg">
<path d="M11.9999 2.24982C6.62385 2.24982 2.24995 6.62372 2.24995 11.9998C2.24995 17.3759 6.62385 21.7498 11.9999 21.7498C17.376 21.7498 21.7499 17.3759 21.7499 11.9998C21.7499 6.62372 17.376 2.24982 11.9999 2.24982ZM13.4999 16.4998H10.4999C10.301 16.4998 10.1103 16.4208 9.9696 16.2801C9.82895 16.1395 9.74993 15.9487 9.74993 15.7498C9.74993 15.5509 9.82895 15.3601 9.9696 15.2195C10.1103 15.0788 10.301 14.9998 10.4999 14.9998H13.4999C13.6988 14.9998 13.8896 15.0788 14.0303 15.2195C14.1709 15.3601 14.2499 15.5509 14.2499 15.7498C14.2499 15.9487 14.1709 16.1395 14.0303 16.2801C13.8896 16.4208 13.6988 16.4998 13.4999 16.4998ZM15.7499 13.4998H8.24994C8.05102 13.4998 7.86026 13.4208 7.71961 13.2801C7.57896 13.1395 7.49994 12.9487 7.49994 12.7498C7.49994 12.5509 7.57896 12.3601 7.71961 12.2195C7.86026 12.0788 8.05102 11.9998 8.24994 11.9998H15.7499C15.9488 11.9998 16.1396 12.0788 16.2803 12.2195C16.4209 12.3601 16.4999 12.5509 16.4999 12.7498C16.4999 12.9487 16.4209 13.1395 16.2803 13.2801C16.1396 13.4208 15.9488 13.4998 15.7499 13.4998ZM17.2499 10.4998H6.74994C6.55103 10.4998 6.36026 10.4208 6.21961 10.2801C6.07896 10.1395 5.99994 9.94872 5.99994 9.74981C5.99994 9.5509 6.07896 9.36013 6.21961 9.21948C6.36026 9.07883 6.55103 8.99981 6.74994 8.99981H17.2499C17.4488 8.99981 17.6396 9.07883 17.7803 9.21948C17.9209 9.36013 17.9999 9.5509 17.9999 9.74981C17.9999 9.94872 17.9209 10.1395 17.7803 10.2801C17.6396 10.4208 17.4488 10.4998 17.2499 10.4998Z" fill="black"/>
</svg>
