<svg width="21" height="21" viewBox="0 0 21 21" fill="none" xmlns="http://www.w3.org/2000/svg">
<path d="M14.7 0H6.3C2.1 0 0 2.1 0 6.3V19.95C0 20.5275 0.4725 21 1.05 21H14.7C18.9 21 21 18.9 21 14.7V6.3C21 2.1 18.9 0 14.7 0Z" fill="#1C2A3A"/>
<path d="M12.6672 11.8804C12.4677 11.7859 12.2787 11.6914 12.1002 11.5759C11.9532 11.4919 11.8062 11.3974 11.6697 11.2924C11.5542 11.2189 11.4177 11.1139 11.2812 10.9984C11.2602 10.9879 11.2182 10.9564 11.1657 10.8934C10.9452 10.7044 10.6932 10.4524 10.4622 10.1899C10.4412 10.1794 10.4097 10.1269 10.3677 10.0639C10.2942 9.97994 10.1892 9.84344 10.0842 9.69644C10.0002 9.59144 9.90567 9.44444 9.82167 9.29744C9.71667 9.11894 9.61168 8.92994 9.52768 8.74094C9.43318 8.53094 9.35966 8.34194 9.28616 8.15294L5.32768 12.1114C5.06518 12.3739 4.82368 12.8569 4.77118 13.2139L4.46667 15.3979C4.39317 15.8599 4.52965 16.2904 4.81315 16.5844C5.05465 16.8259 5.39068 16.9519 5.75818 16.9519C5.84218 16.9519 5.91566 16.9414 5.99966 16.9309L8.18368 16.6264C8.54068 16.5739 9.02366 16.3324 9.28616 16.0699L13.2447 12.1114C13.0557 12.0379 12.8667 11.9644 12.6672 11.8804Z" fill="white"/>
<path d="M15.2457 6.19233C13.9227 4.86933 12.6417 4.83783 11.2872 6.19233L10.4577 7.02183C10.3842 7.09533 10.3632 7.20033 10.3842 7.29483C10.8987 9.10083 12.3372 10.5393 14.1432 11.0538C14.1642 11.0643 14.1957 11.0643 14.2272 11.0643C14.3007 11.0643 14.3742 11.0328 14.4267 10.9803L15.2457 10.1613C15.9177 9.48933 16.2432 8.84883 16.2432 8.19783C16.2432 7.51533 15.9177 6.86433 15.2457 6.19233Z" fill="white"/>
</svg>
