<svg width="28" height="19" viewBox="0 0 28 19" fill="none" xmlns="http://www.w3.org/2000/svg">
<path d="M25.0825 0H2.91655C1.30896 0 0 1.30896 0 2.91661V15.7495C0 17.3571 1.30896 18.6661 2.91655 18.6661H25.0825C26.6901 18.6661 27.999 17.3571 27.999 15.7495V2.91661C27.9991 1.30896 26.6901 0 25.0825 0ZM26.8325 15.7495C26.8325 16.7143 26.0474 17.4994 25.0825 17.4994H2.91655C1.95173 17.4994 1.16661 16.7143 1.16661 15.7495V2.91661C1.16661 1.95179 1.95173 1.16667 2.91655 1.16667H25.0825C26.0473 1.16667 26.8324 1.95179 26.8324 2.91661V15.7495H26.8325Z" fill="#868889"/>
<path d="M27.4165 3.50028H0.584074C0.262085 3.50028 0.00074165 3.76162 0.00074165 4.08361V7.5835C0.00074165 7.90549 0.262085 8.16683 0.584074 8.16683H27.4165C27.7385 8.16683 27.9999 7.90549 27.9999 7.5835V4.08361C27.9998 3.76162 27.7385 3.50028 27.4165 3.50028ZM26.8332 7.00016H1.16735V4.66689H26.8332V7.00016H26.8332Z" fill="#868889"/>
<path d="M11.0837 11.6667H4.08392C3.76193 11.6667 3.50059 11.9281 3.50059 12.25C3.50059 12.572 3.76193 12.8333 4.08392 12.8333H11.0837C11.4057 12.8333 11.667 12.572 11.667 12.25C11.667 11.928 11.4057 11.6667 11.0837 11.6667Z" fill="#868889"/>
<path d="M11.0837 13.9998H4.08392C3.76193 13.9998 3.50059 14.2611 3.50059 14.5831C3.50059 14.9051 3.76193 15.1664 4.08392 15.1664H11.0837C11.4057 15.1664 11.667 14.9051 11.667 14.5831C11.667 14.2611 11.4057 13.9998 11.0837 13.9998Z" fill="#868889"/>
<path d="M22.75 10.4999H21.5834C20.6186 10.4999 19.8334 11.285 19.8334 12.2499V13.4165C19.8334 14.3813 20.6186 15.1664 21.5834 15.1664H22.75C23.7148 15.1664 24.4999 14.3813 24.4999 13.4165V12.2499C24.4999 11.2851 23.7148 10.4999 22.75 10.4999ZM23.3333 13.4165C23.3333 13.7385 23.072 13.9998 22.75 13.9998H21.5834C21.2614 13.9998 21.0001 13.7385 21.0001 13.4165V12.2499C21.0001 11.9279 21.2614 11.6666 21.5834 11.6666H22.75C23.072 11.6666 23.3333 11.9279 23.3333 12.2499V13.4165Z" fill="#868889"/>
</svg>
