<svg width="21" height="21" viewBox="0 0 21 21" fill="none" xmlns="http://www.w3.org/2000/svg">
<path fill-rule="evenodd" clip-rule="evenodd" d="M10.4301 0C9.79399 0.0325418 9.16298 0.530702 8.6755 1.49301L6.82475 5.19451C6.57536 5.70642 5.90594 6.20521 5.34152 6.29709L1.99442 6.84838C-0.145102 7.2159 -0.643886 8.76476 0.891844 10.3005L3.5039 12.9125C3.93705 13.3457 4.18644 14.1989 4.06831 14.8289L3.32013 18.0579C2.72947 20.6043 4.09456 21.5888 6.33909 20.263L9.47618 18.3992C9.73767 18.2411 10.0809 18.1562 10.4301 18.1446V0Z" fill="#A8CE50"/>
<path fill-rule="evenodd" clip-rule="evenodd" d="M10.43 18.1463C10.8345 18.1328 11.247 18.2177 11.55 18.4009L14.687 20.2647C16.9316 21.6036 18.2967 20.606 17.706 18.0596L16.9578 14.8306C16.8134 14.2137 17.0628 13.3605 17.496 12.9274L20.108 10.3153C21.6438 8.76646 21.145 7.21761 19.0055 6.86321L15.6584 6.31192C15.0939 6.20691 14.4245 5.72125 14.1751 5.20934L12.3244 1.50784C11.8012 0.468228 11.1126 -0.0332103 10.43 0.00170457V18.1463Z" fill="#A8CE50"/>
</svg>
