<svg width="27" height="27" viewBox="0 0 27 27" fill="none" xmlns="http://www.w3.org/2000/svg">
<path d="M11.2752 22.1798C12.3732 22.181 13.4158 22.6778 14.501 22.2785C15.3632 21.9609 16.0403 21.1898 16.1921 20.1501C16.3281 19.2184 15.9329 18.3545 15.2645 17.6131C13.163 15.2828 9.3873 15.2828 7.28579 17.6131C6.61739 18.3545 6.22278 19.2179 6.35821 20.1501C6.5094 21.1898 7.18714 21.9615 8.04934 22.2785C9.13454 22.6778 10.1771 22.1816 11.2752 22.1798Z" fill="black"/>
<path d="M9.08112 14.0909C10.0061 13.9109 10.581 12.8654 10.3651 11.7555C10.1492 10.6457 9.22433 9.89182 8.2993 10.0718C7.37427 10.2517 6.7994 11.2973 7.01529 12.4071C7.23119 13.517 8.15609 14.2708 9.08112 14.0909Z" fill="black"/>
<path d="M4.93818 16.8202C5.74232 16.6637 6.24199 15.7545 6.05423 14.7892C5.86647 13.824 5.06238 13.1684 4.25824 13.3248C3.4541 13.4812 2.95442 14.3905 3.14218 15.3557C3.32994 16.3209 4.13403 16.9766 4.93818 16.8202Z" fill="black"/>
<path d="M15.535 12.4071C15.7509 11.2973 15.1759 10.2517 14.2509 10.0718C13.3259 9.89194 12.401 10.6458 12.1852 11.7557C11.9693 12.8655 12.5442 13.9111 13.4693 14.091C14.3943 14.2709 15.3192 13.517 15.535 12.4071Z" fill="black"/>
<path d="M19.4082 15.3558C19.5959 14.3906 19.0962 13.4813 18.292 13.3249C17.4879 13.1686 16.6838 13.8243 16.4961 14.7895C16.3084 15.7547 16.8081 16.664 17.6123 16.8204C18.4164 16.9767 19.2205 16.321 19.4082 15.3558Z" fill="black"/>
<path d="M20.7692 24.923H2.07692V6.23072H14.5384V4.1538H2.07692C0.934613 4.1538 0 5.08841 0 6.23072V24.923C0 26.0653 0.934613 26.9999 2.07692 26.9999H20.7692C21.9115 26.9999 22.8461 26.0653 22.8461 24.923V12.4615H20.7692V24.923Z" fill="black"/>
<path d="M22.8461 0H20.7692V4.15384H16.6154V6.23076H20.7692V10.3846H22.8461V6.23076H27V4.15384H22.8461V0Z" fill="black"/>
</svg>
