<svg width="18" height="26" viewBox="0 0 18 26" fill="none" xmlns="http://www.w3.org/2000/svg">
<path d="M8.77002 16.8904C13.6136 16.8904 17.54 13.1094 17.54 8.44521C17.54 3.78105 13.6136 0 8.77002 0C3.92647 0 0 3.78105 0 8.44521C0 13.1094 3.92647 16.8904 8.77002 16.8904Z" fill="#A8CE50"/>
<path d="M13.6942 17.6831C14.123 17.4622 14.6167 17.787 14.6167 18.2678V24.5692C14.6167 25.7385 13.7982 26.3102 12.7848 25.8295L9.30273 24.1794C9.0039 24.0495 8.53617 24.0495 8.23734 24.1794L4.75531 25.8295C3.74189 26.2972 2.92335 25.7255 2.92335 24.5562L2.94934 18.2678C2.94934 17.787 3.45605 17.4752 3.87181 17.6831C5.33998 18.4237 7.00304 18.8394 8.77003 18.8394C10.537 18.8394 12.2131 18.4237 13.6942 17.6831Z" fill="#A8CE50"/>
</svg>
