<svg width="20" height="23" viewBox="0 0 20 23" fill="none" xmlns="http://www.w3.org/2000/svg">
<path d="M5.5191 0.766667V3.83333" stroke="#771D1D" stroke-width="1.5" stroke-miterlimit="10" stroke-linecap="round" stroke-linejoin="round"/>
<path d="M13.123 0.766667V3.83333" stroke="#771D1D" stroke-width="1.5" stroke-miterlimit="10" stroke-linecap="round" stroke-linejoin="round"/>
<path d="M1.2419 8.01419H17.4002" stroke="#771D1D" stroke-width="1.5" stroke-miterlimit="10" stroke-linecap="round" stroke-linejoin="round"/>
<path d="M15.024 22.2333C17.1237 22.2333 18.8259 20.4027 18.8259 18.1444C18.8259 15.8862 17.1237 14.0556 15.024 14.0556C12.9242 14.0556 11.222 15.8862 11.222 18.1444C11.222 20.4027 12.9242 22.2333 15.024 22.2333Z" stroke="#771D1D" stroke-width="1.5" stroke-miterlimit="10" stroke-linecap="round" stroke-linejoin="round"/>
<path d="M16.0411 19.2791L14.026 17.1222" stroke="#771D1D" stroke-width="1.5" stroke-miterlimit="10" stroke-linecap="round" stroke-linejoin="round"/>
<path d="M16.0219 17.1427L14.0069 19.3098" stroke="#771D1D" stroke-width="1.5" stroke-miterlimit="10" stroke-linecap="round" stroke-linejoin="round"/>
<path d="M17.8754 7.41111V15.4458C17.1816 14.5973 16.1646 14.0556 15.024 14.0556C12.9234 14.0556 11.222 15.8853 11.222 18.1444C11.222 18.9111 11.4216 19.6369 11.7733 20.2502C11.9729 20.6182 12.2295 20.9453 12.5242 21.2111H5.5191C2.1924 21.2111 0.766667 19.1667 0.766667 16.1V7.41111C0.766667 4.34444 2.1924 2.3 5.5191 2.3H13.123C16.4497 2.3 17.8754 4.34444 17.8754 7.41111Z" stroke="#771D1D" stroke-width="1.5" stroke-miterlimit="10" stroke-linecap="round" stroke-linejoin="round"/>
<path d="M9.31675 12.7266H9.32528" stroke="#771D1D" stroke-width="2" stroke-linecap="round" stroke-linejoin="round"/>
<path d="M5.79883 12.7266H5.80737" stroke="#771D1D" stroke-width="2" stroke-linecap="round" stroke-linejoin="round"/>
<path d="M5.79883 15.7933H5.80737" stroke="#771D1D" stroke-width="2" stroke-linecap="round" stroke-linejoin="round"/>
</svg>
