<svg width="25" height="25" viewBox="0 0 25 25" fill="none" xmlns="http://www.w3.org/2000/svg">
<path d="M9.51541 21.6389V18.4538C9.51541 17.6407 10.1794 16.9816 10.9984 16.9816H13.9923C14.3856 16.9816 14.7628 17.1367 15.0409 17.4128C15.319 17.6889 15.4753 18.0633 15.4753 18.4538V21.6389C15.4728 21.9769 15.6063 22.302 15.8462 22.5418C16.0861 22.7817 16.4126 22.9167 16.7531 22.9167H18.7957C19.7496 22.9191 20.6654 22.5446 21.3408 21.8758C22.0162 21.207 22.3958 20.2989 22.3958 19.3519V10.278C22.3958 9.51298 22.0542 8.78734 21.4632 8.29654L14.5146 2.78737C13.3059 1.82143 11.5741 1.85262 10.4015 2.86145L3.61149 8.29654C2.99246 8.77287 2.62247 9.50067 2.60419 10.278V19.3426C2.60419 21.3165 4.21604 22.9167 6.20437 22.9167H8.20032C8.90754 22.9167 9.48231 22.3502 9.48743 21.6482L9.51541 21.6389Z" fill="black"/>
</svg>
