<svg width="24" height="30" viewBox="0 0 24 30" fill="none" xmlns="http://www.w3.org/2000/svg">
<path d="M11.7857 17.1429C10.7261 17.1429 9.69037 16.8287 8.80939 16.24C7.92841 15.6514 7.24177 14.8147 6.8363 13.8358C6.43084 12.8569 6.32475 11.7798 6.53145 10.7406C6.73816 9.70141 7.24838 8.74686 7.99759 7.99765C8.7468 7.24844 9.70135 6.73822 10.7405 6.53151C11.7797 6.32481 12.8569 6.4309 13.8357 6.83637C14.8146 7.24184 15.6513 7.92847 16.24 8.80945C16.8286 9.69043 17.1428 10.7262 17.1428 11.7857C17.1412 13.206 16.5763 14.5677 15.5719 15.572C14.5676 16.5763 13.206 17.1412 11.7857 17.1429ZM11.7857 8.57144C11.1499 8.57144 10.5285 8.75995 9.9999 9.11314C9.47131 9.46633 9.05933 9.96833 8.81605 10.5557C8.57276 11.143 8.50911 11.7893 8.63313 12.4128C8.75716 13.0363 9.06329 13.609 9.51282 14.0586C9.96234 14.5081 10.5351 14.8142 11.1586 14.9382C11.7821 15.0623 12.4284 14.9986 13.0157 14.7553C13.603 14.5121 14.105 14.1001 14.4582 13.5715C14.8114 13.0429 14.9999 12.4214 14.9999 11.7857C14.999 10.9335 14.6601 10.1165 14.0575 9.51391C13.4549 8.91132 12.6379 8.57237 11.7857 8.57144Z" fill="black"/>
<path d="M11.7857 30L2.74769 19.3407C2.69637 19.2795 2.37462 18.8569 2.37462 18.8569C0.830585 16.8232 -0.00360713 14.3391 1.17248e-05 11.7857C1.17248e-05 8.65995 1.24172 5.6622 3.45197 3.45196C5.66222 1.24171 8.65996 0 11.7857 0C14.9115 0 17.9092 1.24171 20.1195 3.45196C22.3297 5.6622 23.5714 8.65995 23.5714 11.7857C23.5753 14.3381 22.7417 16.8212 21.1984 18.8542L21.1968 18.8569C21.1968 18.8569 20.8754 19.2795 20.8275 19.3363L11.7857 30ZM4.08483 17.5661C4.0859 17.5668 4.3349 17.8963 4.3919 17.9672L11.7857 26.687L19.1893 17.9549C19.2363 17.8957 19.4875 17.5639 19.488 17.5631C20.7494 15.9014 21.431 13.8719 21.4286 11.7857C21.4286 9.22827 20.4126 6.77557 18.6043 4.96718C16.7959 3.1588 14.3432 2.14286 11.7857 2.14286C9.22828 2.14286 6.77558 3.1588 4.9672 4.96718C3.15881 6.77557 2.14287 9.22827 2.14287 11.7857C2.1405 13.873 2.82267 15.9036 4.08483 17.5661Z" fill="black"/>
</svg>
