<svg width="25" height="25" viewBox="0 0 25 25" fill="none" xmlns="http://www.w3.org/2000/svg">
<path d="M18.5183 21.0901V2.61266C18.5173 2.27093 18.3811 1.94348 18.1394 1.70184C17.8978 1.46019 17.5704 1.324 17.2286 1.32301H2.6126C2.27087 1.324 1.94341 1.46019 1.70177 1.70184C1.46013 1.94348 1.32394 2.27093 1.32295 2.61266V21.5275C1.32465 22.0971 1.55165 22.6428 1.95438 23.0455C2.3571 23.4482 2.90283 23.6752 3.47236 23.6769H21.0976" stroke="black" stroke-width="2.60409" stroke-linejoin="round"/>
<path d="M21.0976 23.677C20.4135 23.677 19.7575 23.4052 19.2737 22.9215C18.79 22.4378 18.5183 21.7818 18.5183 21.0977V5.62191H22.3872C22.7293 5.62191 23.0573 5.75778 23.2992 5.99964C23.541 6.24149 23.6769 6.56952 23.6769 6.91156V21.0977C23.6769 21.7818 23.4051 22.4378 22.9214 22.9215C22.4377 23.4052 21.7817 23.677 21.0976 23.677Z" stroke="black" stroke-width="2.60409" stroke-linejoin="round"/>
<path d="M11.6401 5.62191H15.0792" stroke="black" stroke-width="2.60409" stroke-linecap="round" stroke-linejoin="round"/>
<path d="M11.6401 9.06094H15.0792" stroke="black" stroke-width="2.60409" stroke-linecap="round" stroke-linejoin="round"/>
<path d="M4.76192 12.5H15.0791" stroke="black" stroke-width="2.60409" stroke-linecap="round" stroke-linejoin="round"/>
<path d="M4.76192 15.939H15.0791" stroke="black" stroke-width="2.60409" stroke-linecap="round" stroke-linejoin="round"/>
<path d="M4.76192 19.378H15.0791" stroke="black" stroke-width="2.60409" stroke-linecap="round" stroke-linejoin="round"/>
<path d="M8.20119 9.92064H4.76213C4.5341 9.92064 4.31542 9.83005 4.15418 9.66882C3.99294 9.50758 3.90236 9.2889 3.90236 9.06087V5.62181C3.90236 5.39378 3.99294 5.1751 4.15418 5.01386C4.31542 4.85262 4.5341 4.76204 4.76213 4.76204H8.20119C8.42921 4.76204 8.6479 4.85262 8.80914 5.01386C8.97037 5.1751 9.06096 5.39378 9.06096 5.62181V9.06087C9.06096 9.2889 8.97037 9.50758 8.80914 9.66882C8.6479 9.83005 8.42921 9.92064 8.20119 9.92064Z" fill="black"/>
</svg>
