<svg width="22" height="37" viewBox="0 0 22 37" fill="none" xmlns="http://www.w3.org/2000/svg">
<path d="M10.9999 19.9753C11.5062 19.9753 11.9166 19.2874 11.9166 18.4388C11.9166 17.5902 11.5062 16.9022 10.9999 16.9022C10.4937 16.9022 10.0833 17.5902 10.0833 18.4388C10.0833 19.2874 10.4937 19.9753 10.9999 19.9753Z" fill="#060518" stroke="#060518" stroke-width="2" stroke-linecap="round" stroke-linejoin="round"/>
<path d="M10.9999 9.21937C11.5062 9.21937 11.9166 8.53142 11.9166 7.6828C11.9166 6.83418 11.5062 6.14624 10.9999 6.14624C10.4937 6.14624 10.0833 6.83418 10.0833 7.6828C10.0833 8.53142 10.4937 9.21937 10.9999 9.21937Z" fill="#060518" stroke="#060518" stroke-width="2" stroke-linecap="round" stroke-linejoin="round"/>
<path d="M10.9999 30.7313C11.5062 30.7313 11.9166 30.0433 11.9166 29.1947C11.9166 28.3461 11.5062 27.6581 10.9999 27.6581C10.4937 27.6581 10.0833 28.3461 10.0833 29.1947C10.0833 30.0433 10.4937 30.7313 10.9999 30.7313Z" fill="#060518" stroke="#060518" stroke-width="2" stroke-linecap="round" stroke-linejoin="round"/>
</svg>
