<svg width="50" height="63" viewBox="0 0 50 63" fill="none" xmlns="http://www.w3.org/2000/svg">
<path d="M24.75 36.0001C22.525 36.0001 20.3499 35.3403 18.4998 34.1041C16.6498 32.8679 15.2079 31.1109 14.3564 29.0553C13.5049 26.9996 13.2821 24.7376 13.7162 22.5553C14.1503 20.373 15.2217 18.3685 16.7951 16.7951C18.3684 15.2218 20.373 14.1503 22.5552 13.7162C24.7375 13.2822 26.9995 13.5049 29.0552 14.3564C31.1109 15.2079 32.8679 16.6499 34.104 18.4999C35.3402 20.35 36 22.525 36 24.7501C35.9966 27.7327 34.8103 30.5922 32.7012 32.7013C30.5922 34.8103 27.7327 35.9967 24.75 36.0001ZM24.75 18.0001C23.415 18.0001 22.1099 18.396 20.9999 19.1377C19.8899 19.8794 19.0247 20.9336 18.5138 22.167C18.0029 23.4004 17.8693 24.7576 18.1297 26.0669C18.3902 27.3763 19.033 28.579 19.977 29.523C20.921 30.467 22.1238 31.1099 23.4332 31.3704C24.7425 31.6308 26.0997 31.4971 27.3331 30.9863C28.5665 30.4754 29.6207 29.6102 30.3624 28.5002C31.1041 27.3901 31.5 26.0851 31.5 24.7501C31.498 22.9605 30.7863 21.2447 29.5208 19.9793C28.2554 18.7138 26.5396 18.002 24.75 18.0001Z" fill="white"/>
<path d="M24.75 63L5.77015 40.6154C5.66237 40.4869 4.9867 39.5995 4.9867 39.5995C1.74423 35.3288 -0.00757498 30.1122 2.46221e-05 24.75C2.46221e-05 18.1859 2.60761 11.8906 7.24913 7.24911C11.8907 2.60758 18.1859 0 24.75 0C31.3141 0 37.6094 2.60758 42.2509 7.24911C46.8924 11.8906 49.5 18.1859 49.5 24.75C49.5081 30.11 47.7575 35.3246 44.5167 39.5939L44.5134 39.5995C44.5134 39.5995 43.8383 40.4869 43.7378 40.6062L24.75 63ZM8.57815 36.8888C8.5804 36.8903 9.1033 37.5822 9.223 37.7311L24.75 56.0428L40.2975 37.7053C40.3963 37.5811 40.9237 36.8842 40.9248 36.8824C43.5737 33.3929 45.0052 29.131 45 24.75C45 19.3794 42.8665 14.2287 39.0689 10.4311C35.2713 6.63348 30.1207 4.5 24.75 4.5C19.3794 4.5 14.2287 6.63348 10.4311 10.4311C6.6335 14.2287 4.50002 19.3794 4.50002 24.75C4.49505 29.1334 5.92761 33.3975 8.57815 36.8888Z" fill="white"/>
</svg>
