<svg width="24" height="30" viewBox="0 0 24 30" fill="none" xmlns="http://www.w3.org/2000/svg">
<path d="M11.7858 17.1428C10.7262 17.1428 9.69046 16.8286 8.80948 16.24C7.9285 15.6513 7.24186 14.8147 6.83639 13.8358C6.43092 12.8569 6.32483 11.7797 6.53154 10.7406C6.73824 9.70137 7.24846 8.74682 7.99767 7.9976C8.74688 7.24839 9.70144 6.73817 10.7406 6.53147C11.7798 6.32476 12.857 6.43085 13.8358 6.83632C14.8147 7.24179 15.6514 7.92843 16.2401 8.80941C16.8287 9.69039 17.1429 10.7261 17.1429 11.7857C17.1413 13.206 16.5764 14.5677 15.572 15.572C14.5677 16.5763 13.2061 17.1412 11.7858 17.1428ZM11.7858 8.57139C11.15 8.57139 10.5286 8.75991 9.99999 9.1131C9.4714 9.46629 9.05942 9.96829 8.81613 10.5556C8.57285 11.143 8.5092 11.7892 8.63322 12.4128C8.75725 13.0363 9.06338 13.609 9.5129 14.0585C9.96243 14.5081 10.5352 14.8142 11.1587 14.9382C11.7822 15.0622 12.4285 14.9986 13.0158 14.7553C13.6031 14.512 14.1051 14.1 14.4583 13.5714C14.8115 13.0429 15 12.4214 15 11.7857C14.9991 10.9335 14.6602 10.1165 14.0576 9.51387C13.455 8.91128 12.6379 8.57233 11.7858 8.57139Z" fill="#FF0000"/>
<path d="M11.7857 30.0001L2.7477 19.3407C2.69637 19.2795 2.37462 18.857 2.37462 18.857C0.830586 16.8233 -0.00360714 14.3392 1.17248e-05 11.7857C1.17248e-05 8.65996 1.24172 5.66222 3.45197 3.45196C5.66223 1.24171 8.65998 0 11.7857 0C14.9115 0 17.9093 1.24171 20.1195 3.45196C22.3298 5.66222 23.5715 8.65996 23.5715 11.7857C23.5753 14.3381 22.7417 16.8213 21.1985 18.8543L21.1969 18.857C21.1969 18.857 20.8754 19.2795 20.8276 19.3363L11.7857 30.0001ZM4.08484 17.5661C4.08591 17.5669 4.33491 17.8963 4.39191 17.9672L11.7857 26.6871L19.1893 17.9549C19.2364 17.8958 19.4875 17.564 19.488 17.5631C20.7494 15.9014 21.4311 13.8719 21.4286 11.7857C21.4286 9.22829 20.4127 6.77558 18.6043 4.96719C16.7959 3.1588 14.3432 2.14286 11.7857 2.14286C9.2283 2.14286 6.7756 3.1588 4.96721 4.96719C3.15882 6.77558 2.14287 9.22829 2.14287 11.7857C2.1405 13.8731 2.82268 15.9036 4.08484 17.5661Z" fill="#FF0000"/>
</svg>
