<svg width="20" height="20" viewBox="0 0 20 20" fill="none" xmlns="http://www.w3.org/2000/svg">
<g clip-path="url(#clip0_148_908)">
<path d="M17.4218 1.56249H15.6249V0.624997C15.6249 0.279842 15.3451 0 14.9999 0C14.6547 0 14.3749 0.279842 14.3749 0.624997V1.56249H5.62497V0.624997C5.62497 0.279842 5.34517 0 4.99998 0C4.65478 0 4.37498 0.279842 4.37498 0.624997V1.56249H2.57811C1.15652 1.56249 0 2.71901 0 4.1406V17.4218C0 18.8434 1.15652 19.9999 2.57811 19.9999H17.4218C18.8434 19.9999 19.9999 18.8434 19.9999 17.4218V4.1406C19.9999 2.71901 18.8434 1.56249 17.4218 1.56249ZM2.57811 2.81249H4.37498V3.43748C4.37498 3.78264 4.65478 4.06248 4.99998 4.06248C5.34517 4.06248 5.62497 3.78264 5.62497 3.43748V2.81249H14.3749V3.43748C14.3749 3.78264 14.6547 4.06248 14.9999 4.06248C15.3451 4.06248 15.6249 3.78264 15.6249 3.43748V2.81249H17.4218C18.1541 2.81249 18.7499 3.40826 18.7499 4.1406V5.62497H1.24999V4.1406C1.24999 3.40826 1.84577 2.81249 2.57811 2.81249ZM17.4218 18.7499H2.57811C1.84577 18.7499 1.24999 18.1541 1.24999 17.4218V6.87497H18.7499V17.4218C18.7499 18.1541 18.1541 18.7499 17.4218 18.7499Z" fill="#868889"/>
</g>
<defs>
<clipPath id="clip0_148_908">
<rect width="19.6244" height="19.6244" fill="white" transform="scale(1.01913)"/>
</clipPath>
</defs>
</svg>
