<svg width="49" height="49" viewBox="0 0 49 49" fill="none" xmlns="http://www.w3.org/2000/svg">
<path d="M27.614 14V17" stroke="#014737" stroke-width="1.5" stroke-miterlimit="10" stroke-linecap="round" stroke-linejoin="round"/>
<path d="M28.0231 31L28.9436 31.99L30.9241 30.02" stroke="#014737" stroke-width="1.5" stroke-linecap="round" stroke-linejoin="round"/>
<circle cx="24.5" cy="24.5" r="24.5" fill="#D0E4A0"/>
<path d="M20.1755 14V17" stroke="#014737" stroke-width="1.5" stroke-miterlimit="10" stroke-linecap="round" stroke-linejoin="round"/>
<path d="M15.9912 21.09H31.7982" stroke="#014737" stroke-width="1.5" stroke-miterlimit="10" stroke-linecap="round" stroke-linejoin="round"/>
<path d="M33.193 31C33.193 31.75 32.9977 32.46 32.6537 33.06C32.0121 34.22 30.8312 35 29.4737 35C28.5346 35 27.6791 34.63 27.0283 34C26.74 33.74 26.489 33.42 26.2937 33.06C25.9497 32.46 25.7544 31.75 25.7544 31C25.7544 28.79 27.4188 27 29.4737 27C30.5895 27 31.5844 27.53 32.2632 28.36C32.8397 29.07 33.193 29.99 33.193 31Z" stroke="#014737" stroke-width="1.5" stroke-miterlimit="10" stroke-linecap="round" stroke-linejoin="round"/>
<path d="M32.2632 20.5V28.36C31.5844 27.53 30.5895 27 29.4737 27C27.4188 27 25.7544 28.79 25.7544 31C25.7544 31.75 25.9497 32.46 26.2937 33.06C26.489 33.42 26.7401 33.74 27.0283 34H20.1755C16.9211 34 15.5264 32 15.5264 29V20.5C15.5264 17.5 16.9211 15.5 20.1755 15.5H27.6141C30.8685 15.5 32.2632 17.5 32.2632 20.5Z" stroke="#014737" stroke-width="1.5" stroke-miterlimit="10" stroke-linecap="round" stroke-linejoin="round"/>
<path d="M23.8905 25.7H23.8988" stroke="#014737" stroke-width="2" stroke-linecap="round" stroke-linejoin="round"/>
<path d="M20.4491 25.7H20.4574" stroke="#014737" stroke-width="2" stroke-linecap="round" stroke-linejoin="round"/>
<path d="M20.4491 28.7H20.4574" stroke="#014737" stroke-width="2" stroke-linecap="round" stroke-linejoin="round"/>
<path d="M28 30.98L28.99 31.97L31.12 30" stroke="#014737" stroke-width="1.5" stroke-linecap="round" stroke-linejoin="round"/>
</svg>
