<svg width="20" height="22" viewBox="0 0 20 22" fill="none" xmlns="http://www.w3.org/2000/svg">
<path d="M5.5198 0.766763V3.83381" stroke="#1C2A3A" stroke-width="1.5" stroke-miterlimit="10" stroke-linecap="round" stroke-linejoin="round"/>
<path d="M13.1246 0.766763V3.83381" stroke="#1C2A3A" stroke-width="1.5" stroke-miterlimit="10" stroke-linecap="round" stroke-linejoin="round"/>
<path d="M1.24206 8.01519H17.4024" stroke="#1C2A3A" stroke-width="1.5" stroke-miterlimit="10" stroke-linecap="round" stroke-linejoin="round"/>
<path d="M16.1761 14.8446L12.811 18.4637C12.6779 18.6068 12.5543 18.8726 12.5258 19.0669L12.3452 20.447C12.2786 20.948 12.6018 21.2956 13.0676 21.224L14.351 21.0298C14.5316 20.9991 14.7882 20.8662 14.9118 20.7231L18.277 17.104C18.8568 16.4803 19.1325 15.7545 18.277 14.8344C17.4309 13.9245 16.756 14.2209 16.1761 14.8446Z" stroke="#1C2A3A" stroke-width="1.5" stroke-miterlimit="10" stroke-linecap="round" stroke-linejoin="round"/>
<path d="M15.6913 15.366C15.9765 16.4701 16.775 17.3289 17.8017 17.6356" stroke="#1C2A3A" stroke-width="1.5" stroke-miterlimit="10" stroke-linecap="round" stroke-linejoin="round"/>
<path d="M9.32222 21.2138H5.51979C2.19267 21.2138 0.766763 19.1691 0.766763 16.102V7.41204C0.766763 4.34499 2.19267 2.30029 5.51979 2.30029H13.1246C16.4518 2.30029 17.8777 4.34499 17.8777 7.41204V10.9903" stroke="#1C2A3A" stroke-width="1.5" stroke-miterlimit="10" stroke-linecap="round" stroke-linejoin="round"/>
<path d="M9.31791 12.7282H9.32645" stroke="#1C2A3A" stroke-width="2" stroke-linecap="round" stroke-linejoin="round"/>
<path d="M5.79956 12.7282H5.8081" stroke="#1C2A3A" stroke-width="2" stroke-linecap="round" stroke-linejoin="round"/>
<path d="M5.79956 15.7953H5.8081" stroke="#1C2A3A" stroke-width="2" stroke-linecap="round" stroke-linejoin="round"/>
</svg>
