<svg width="29" height="29" viewBox="0 0 29 29" fill="none" xmlns="http://www.w3.org/2000/svg">
<path d="M14.648 7.10205C13.6237 7.10205 12.6225 7.40577 11.7709 7.9748C10.9193 8.54383 10.2555 9.35261 9.86359 10.2989C9.47163 11.2451 9.36908 12.2864 9.5689 13.2909C9.76871 14.2955 10.2619 15.2182 10.9862 15.9424C11.7104 16.6667 12.6331 17.1599 13.6377 17.3597C14.6422 17.5595 15.6835 17.4569 16.6297 17.065C17.576 16.673 18.3848 16.0093 18.9538 15.1577C19.5228 14.3061 19.8265 13.3048 19.8265 12.2806C19.8265 10.9072 19.2809 9.58999 18.3098 8.61882C17.3386 7.64765 16.0214 7.10205 14.648 7.10205ZM14.648 15.3878C14.0334 15.3878 13.4327 15.2055 12.9217 14.8641C12.4108 14.5227 12.0125 14.0374 11.7773 13.4697C11.5422 12.9019 11.4806 12.2772 11.6005 11.6744C11.7204 11.0717 12.0163 10.5181 12.4509 10.0835C12.8854 9.649 13.4391 9.35307 14.0418 9.23318C14.6445 9.11329 15.2693 9.17482 15.837 9.41C16.4048 9.64517 16.89 10.0434 17.2315 10.5544C17.5729 11.0654 17.7551 11.6661 17.7551 12.2806C17.7542 13.1044 17.4265 13.8942 16.844 14.4767C16.2615 15.0592 15.4717 15.3868 14.648 15.3878Z" fill="black"/>
<path d="M14.5 0C11.6322 0 8.82875 0.85041 6.44424 2.44369C4.05972 4.03697 2.20122 6.30156 1.10375 8.95109C0.0062826 11.6006 -0.280866 14.5161 0.27862 17.3288C0.838105 20.1415 2.2191 22.7252 4.24696 24.753C6.27482 26.7809 8.85847 28.1619 11.6712 28.7214C14.4839 29.2809 17.3994 28.9937 20.0489 27.8962C22.6984 26.7988 24.963 24.9403 26.5563 22.5558C28.1496 20.1712 29 17.3678 29 14.5C28.9957 10.6557 27.4666 6.97007 24.7483 4.25173C22.0299 1.5334 18.3443 0.00433125 14.5 0ZM8.28572 25.2471V23.8214C8.28662 22.9976 8.61427 22.2078 9.19678 21.6253C9.77929 21.0428 10.5691 20.7152 11.3929 20.7143H17.6071C18.4309 20.7152 19.2207 21.0428 19.8032 21.6253C20.3857 22.2078 20.7134 22.9976 20.7143 23.8214V25.2471C18.8284 26.3483 16.6838 26.9286 14.5 26.9286C12.3162 26.9286 10.1716 26.3483 8.28572 25.2471ZM22.7779 23.7446C22.7574 22.386 22.2038 21.0899 21.2366 20.1355C20.2693 19.1812 18.9659 18.6452 17.6071 18.6429H11.3929C10.0341 18.6452 8.73066 19.1812 7.76343 20.1355C6.79621 21.0899 6.24265 22.386 6.22206 23.7446C4.34386 22.0675 3.01935 19.8595 2.42392 17.4129C1.8285 14.9663 1.99023 12.3966 2.88772 10.044C3.78521 7.69139 5.37611 5.66687 7.44976 4.23852C9.52342 2.81017 11.982 2.04535 14.5 2.04535C17.018 2.04535 19.4766 2.81017 21.5502 4.23852C23.6239 5.66687 25.2148 7.69139 26.1123 10.044C27.0098 12.3966 27.1715 14.9663 26.5761 17.4129C25.9807 19.8595 24.6561 22.0675 22.7779 23.7446Z" fill="black"/>
</svg>
